<?xml version="1.0" standalone="no"?>
<!DOCTYPE svg PUBLIC "-//W3C//DTD SVG 20010904//EN"
 "http://www.w3.org/TR/2001/REC-SVG-20010904/DTD/svg10.dtd">
<svg version="1.0" xmlns="http://www.w3.org/2000/svg"
 width="1344.000000pt" height="1344.000000pt" viewBox="0 0 1344.000000 1344.000000"
 preserveAspectRatio="xMidYMid meet">
<metadata>
Created by potrace 1.11, written by Peter Selinger 2001-2013
</metadata>
<g transform="translate(0.000000,1344.000000) scale(0.100000,-0.100000)"
fill="#000000" stroke="none">
<path d="M4016 9703 c-2 -3 -786 -8 -2526 -19 -481 -3 -1011 -6 -1178 -7
l-303 -2 6 -485 c3 -267 8 -624 10 -795 2 -170 7 -524 10 -785 3 -261 8 -619
10 -795 2 -176 7 -536 10 -800 3 -264 8 -628 10 -810 3 -181 7 -541 10 -800 4
-258 7 -483 8 -500 1 -16 -1 -42 -5 -57 -3 -16 -3 -28 1 -28 5 0 7 -11 6 -25
-2 -14 2 -25 8 -25 37 -2 754 7 785 9 13 1 13 114 -4 1461 -4 289 -7 581 -8
650 l-1 125 555 -1 c305 -1 983 -4 1505 -8 1579 -10 1977 -10 2035 -2 369 52
718 252 956 548 30 37 54 70 54 74 0 4 6 15 14 23 50 58 125 246 146 371 8 45
12 295 12 800 -1 649 -3 789 -18 850 -49 210 -146 384 -311 556 -68 71 -225
204 -242 204 -6 0 -11 5 -11 10 0 6 -4 10 -10 10 -5 0 -40 19 -77 43 -78 50
-250 128 -338 153 -33 9 -61 16 -62 16 -2 -1 -24 5 -50 13 -27 7 -77 17 -113
21 -56 7 -888 13 -894 7z m854 -822 c53 -15 143 -52 150 -62 3 -3 15 -9 27
-13 13 -4 29 -13 35 -19 7 -7 32 -25 56 -41 56 -38 147 -137 173 -188 20 -40
21 -54 21 -734 l1 -694 -28 -43 c-81 -123 -256 -241 -405 -272 -59 -12 -26
-12 -1830 0 -575 4 -1270 8 -1545 10 -275 2 -539 4 -586 4 l-86 1 -2 238 c-2
130 -5 365 -6 522 -2 157 -6 509 -10 783 l-6 497 58 1 c59 0 690 4 2373 15
520 3 946 6 947 7 1 1 140 2 310 1 218 0 321 -4 353 -13z"/>
<path d="M9735 9700 c-2 -3 -322 -5 -712 -5 -460 0 -711 -3 -715 -10 -5 -7 -8
-7 -8 0 0 16 -476 9 -486 -7 -3 -5 -12 -4 -19 2 -9 7 -15 7 -19 1 -4 -5 -15
-8 -26 -6 -11 2 -20 1 -20 -3 0 -4 -19 -8 -41 -9 -23 -2 -47 -7 -54 -13 -6 -5
-14 -7 -17 -4 -7 6 -143 -38 -213 -70 -27 -13 -60 -26 -72 -30 -13 -4 -23 -12
-23 -17 0 -5 -7 -9 -15 -9 -8 0 -15 -5 -15 -11 0 -5 -4 -8 -9 -4 -5 3 -15 0
-23 -7 -7 -7 -40 -30 -72 -52 -58 -37 -251 -224 -242 -233 2 -2 -11 -20 -30
-40 -19 -20 -33 -38 -30 -40 3 -3 -3 -13 -12 -24 -21 -22 -106 -179 -97 -179
3 0 -1 -10 -9 -22 -17 -28 -72 -190 -79 -235 -3 -17 -7 -35 -10 -40 -5 -8 -17
-82 -23 -138 -1 -16 -5 -41 -9 -55 -3 -14 -8 -162 -10 -329 -3 -167 -7 -306
-9 -309 -3 -2 -1 -12 4 -22 5 -10 7 -20 4 -23 -4 -3 -8 -122 -9 -264 -2 -142
-4 -326 -6 -409 -1 -83 1 -156 5 -163 4 -6 4 -11 -1 -11 -12 0 -11 -334 1
-342 8 -5 8 -8 1 -8 -17 0 -7 -1003 10 -1029 5 -10 4 -12 -4 -7 -8 5 -10 -1
-6 -23 3 -17 7 -101 10 -188 3 -87 7 -180 10 -208 7 -81 22 -200 25 -200 1 0
3 -16 6 -35 3 -31 10 -61 20 -95 2 -5 6 -25 9 -44 4 -19 12 -46 18 -60 6 -14
11 -30 12 -36 4 -29 29 -95 37 -95 4 0 7 -3 6 -7 -5 -15 34 -103 44 -103 6 0
8 -3 5 -7 -11 -10 91 -179 138 -229 11 -12 31 -35 45 -52 14 -17 31 -31 38
-32 7 0 11 -3 9 -8 -2 -4 4 -15 15 -25 10 -9 18 -15 18 -13 0 2 16 -11 35 -30
21 -20 41 -32 48 -28 7 4 9 4 5 -1 -15 -16 224 -155 264 -155 8 0 18 -4 24 -9
7 -6 73 -28 114 -37 3 0 12 -3 20 -7 20 -8 114 -26 165 -31 22 -3 51 -7 65
-11 51 -12 739 -18 2585 -22 1320 -2 1920 0 1965 7 66 11 173 41 207 58 65 33
139 65 146 64 4 -1 7 3 7 8 0 6 7 10 15 10 8 0 15 5 15 11 0 5 4 8 9 4 5 -3
12 -1 16 5 3 6 22 17 41 25 19 8 34 18 34 23 0 6 11 13 25 16 14 4 23 10 20
15 -2 5 6 12 20 15 14 4 25 13 25 21 0 8 4 14 9 12 16 -4 162 132 222 208 103
131 159 259 174 405 2 19 5 35 5 35 1 0 4 29 6 65 2 36 6 97 8 135 6 94 16
341 20 498 l4 127 -27 0 c-114 2 -505 11 -628 14 l-153 4 -1 -67 c-1 -105 -7
-265 -14 -416 -4 -77 -8 -161 -8 -187 -1 -27 -4 -48 -8 -48 -3 0 -4 -10 -2
-23 4 -21 -36 -85 -60 -95 -4 -2 -13 -9 -20 -16 -6 -6 -25 -19 -40 -29 -15
-10 -25 -23 -21 -29 4 -7 3 -8 -5 -4 -6 4 -24 0 -39 -10 -15 -10 -29 -19 -32
-20 -3 0 -23 -9 -45 -19 -35 -16 -71 -18 -307 -17 -147 0 -272 3 -278 7 -5 3
-10 2 -10 -2 0 -5 -17 -7 -37 -5 -45 3 -15 3 -260 2 -111 -1 -207 1 -213 5 -5
3 -10 3 -10 -2 0 -10 -1652 -9 -1668 1 -7 4 -12 4 -12 -1 0 -4 -71 -7 -157 -6
-87 1 -412 5 -723 8 -679 7 -740 8 -740 15 0 5 -23 9 -80 13 -14 1 -28 6 -31
10 -4 5 -18 10 -33 10 -14 1 -26 5 -26 8 0 3 -12 11 -27 18 -16 7 -28 11 -28
10 0 -2 -18 15 -41 38 -48 48 -74 86 -74 108 0 8 -4 15 -9 15 -8 0 -46 96 -43
110 0 3 -4 11 -10 18 -6 6 -8 12 -5 12 3 0 1 17 -4 38 -19 81 -28 147 -34 262
-6 101 -15 309 -15 330 -1 8 -1 60 -2 115 -4 190 1 1801 6 2160 7 494 13 579
41 665 1 3 7 26 15 53 7 26 16 50 21 53 5 3 9 14 9 25 0 10 4 19 8 19 5 0 15
12 23 28 30 58 158 162 199 162 10 0 21 4 24 9 4 5 25 12 47 16 29 5 38 10 28
16 -9 6 -10 9 -2 9 6 0 14 -4 17 -9 3 -5 21 -6 38 -2 18 4 236 8 483 8 248 1
466 2 485 3 19 1 125 1 235 1 110 0 486 2 835 5 349 2 656 4 683 4 26 0 53 0
60 0 1019 1 1497 0 1517 -4 45 -9 55 -12 86 -29 39 -20 151 -134 153 -155 3
-21 14 -42 22 -42 5 0 9 -5 9 -11 0 -5 11 -35 25 -65 14 -30 25 -61 25 -69 0
-8 5 -15 10 -15 6 0 10 -8 10 -18 0 -10 9 -45 19 -78 11 -32 22 -76 25 -98 4
-21 9 -43 13 -49 3 -5 7 -22 8 -36 4 -57 5 -62 13 -58 4 3 8 -20 8 -51 1 -32
5 -84 9 -117 3 -33 6 -71 6 -85 l-1 -26 137 3 c76 2 239 5 363 7 124 2 244 5
267 5 l42 1 -2 65 c-1 36 -4 65 -7 65 -3 0 -6 21 -6 48 -1 26 -5 67 -8 92 -3
25 -7 57 -8 73 -1 15 -6 27 -10 27 -4 0 -5 8 -3 18 2 11 -6 61 -16 113 -11 52
-22 103 -24 114 -2 11 -4 20 -5 20 -1 0 -3 7 -5 15 -9 49 -69 226 -76 228 -5
2 -7 7 -4 12 9 14 -104 264 -140 310 -6 8 -24 36 -38 62 -15 26 -33 53 -40 60
-6 7 -24 29 -39 49 -23 31 -136 147 -178 182 -16 14 -101 73 -135 95 -29 18
-147 73 -165 76 -3 1 -9 4 -15 7 -5 4 -35 12 -65 20 -30 7 -57 16 -60 19 -3 3
-14 6 -25 7 -11 0 -42 5 -70 9 -71 11 -1964 14 -1971 3 -3 -5 -11 -6 -17 -2
-18 12 -227 10 -227 -2 0 -7 -3 -7 -8 0 -8 12 -52 13 -69 2 -7 -5 -13 -5 -13
0 0 8 -250 12 -255 3z m2155 -60 c0 -5 -2 -10 -4 -10 -3 0 -8 5 -11 10 -3 6
-1 10 4 10 6 0 11 -4 11 -10z m240 6 c0 -3 -4 -8 -10 -11 -5 -3 -10 -1 -10 4
0 6 5 11 10 11 6 0 10 -2 10 -4z m-4005 -86 c3 -5 1 -10 -4 -10 -6 0 -11 5
-11 10 0 6 2 10 4 10 3 0 8 -4 11 -10z m1445 0 c0 -5 -2 -10 -4 -10 -3 0 -8 5
-11 10 -3 6 -1 10 4 10 6 0 11 -4 11 -10z m720 0 c0 -5 -2 -10 -4 -10 -3 0 -8
5 -11 10 -3 6 -1 10 4 10 6 0 11 -4 11 -10z m880 6 c0 -3 -4 -8 -10 -11 -5 -3
-10 -1 -10 4 0 6 5 11 10 11 6 0 10 -2 10 -4z m160 0 c0 -3 -4 -8 -10 -11 -5
-3 -10 -1 -10 4 0 6 5 11 10 11 6 0 10 -2 10 -4z m74 -4 c3 -5 -1 -9 -9 -9 -8
0 -12 4 -9 9 3 4 7 8 9 8 2 0 6 -4 9 -8z m561 -2 c3 -5 1 -10 -4 -10 -6 0 -11
5 -11 10 0 6 2 10 4 10 3 0 8 -4 11 -10z m-4318 -75 c0 -8 -4 -12 -9 -9 -5 3
-6 10 -3 15 9 13 12 11 12 -6z m-77 1 c0 -3 -4 -8 -10 -11 -5 -3 -10 -1 -10 4
0 6 5 11 10 11 6 0 10 -2 10 -4z m564 -4 c3 -5 -1 -9 -9 -9 -8 0 -12 4 -9 9 3
4 7 8 9 8 2 0 6 -4 9 -8z m473 -77 c0 -8 -4 -12 -9 -9 -5 3 -6 10 -3 15 9 13
12 11 12 -6z m3840 0 c0 -8 -4 -12 -9 -9 -5 3 -6 10 -3 15 9 13 12 11 12 -6z
m-3917 -5 c0 -5 -5 -10 -11 -10 -5 0 -7 5 -4 10 3 6 8 10 11 10 2 0 4 -4 4
-10z m640 6 c0 -3 -4 -8 -10 -11 -5 -3 -10 -1 -10 4 0 6 5 11 10 11 6 0 10 -2
10 -4z m74 -4 c3 -5 -1 -9 -9 -9 -8 0 -12 4 -9 9 3 4 7 8 9 8 2 0 6 -4 9 -8z
m3126 -2 c0 -5 -5 -10 -11 -10 -5 0 -7 5 -4 10 3 6 8 10 11 10 2 0 4 -4 4 -10z
m-2160 -74 c0 -3 -4 -8 -10 -11 -5 -3 -10 -1 -10 4 0 6 5 11 10 11 6 0 10 -2
10 -4z m-3040 -80 c0 -3 -4 -8 -10 -11 -5 -3 -10 -1 -10 4 0 6 5 11 10 11 6 0
10 -2 10 -4z m720 -6 c0 -5 -2 -10 -4 -10 -3 0 -8 5 -11 10 -3 6 -1 10 4 10 6
0 11 -4 11 -10z m1915 1 c3 -5 2 -12 -3 -15 -5 -3 -9 1 -9 9 0 17 3 19 12 6z
m85 -1 c0 -5 -5 -10 -11 -10 -5 0 -7 5 -4 10 3 6 8 10 11 10 2 0 4 -4 4 -10z
m1360 6 c0 -3 -4 -8 -10 -11 -5 -3 -10 -1 -10 4 0 6 5 11 10 11 6 0 10 -2 10
-4z m480 0 c0 -3 -4 -8 -10 -11 -5 -3 -10 -1 -10 4 0 6 5 11 10 11 6 0 10 -2
10 -4z m880 -6 c0 -5 -2 -10 -4 -10 -3 0 -8 5 -11 10 -3 6 -1 10 4 10 6 0 11
-4 11 -10z m-5445 -80 c3 -5 1 -10 -4 -10 -6 0 -11 5 -11 10 0 6 2 10 4 10 3
0 8 -4 11 -10z m405 0 c0 -5 -2 -10 -4 -10 -3 0 -8 5 -11 10 -3 6 -1 10 4 10
6 0 11 -4 11 -10z m77 -5 c0 -8 -4 -12 -9 -9 -5 3 -6 10 -3 15 9 13 12 11 12
-6z m1680 0 c0 -8 -4 -12 -9 -9 -5 3 -6 10 -3 15 9 13 12 11 12 -6z m-962 -74
c3 -5 2 -12 -3 -15 -5 -3 -9 1 -9 9 0 17 3 19 12 6z m85 -1 c0 -5 -5 -10 -11
-10 -5 0 -7 5 -4 10 3 6 8 10 11 10 2 0 4 -4 4 -10z m320 6 c0 -3 -4 -8 -10
-11 -5 -3 -10 -1 -10 4 0 6 5 11 10 11 6 0 10 -2 10 -4z m555 -6 c3 -5 1 -10
-4 -10 -6 0 -11 5 -11 10 0 6 2 10 4 10 3 0 8 -4 11 -10z m2880 0 c3 -5 1 -10
-4 -10 -6 0 -11 5 -11 10 0 6 2 10 4 10 3 0 8 -4 11 -10z m82 -5 c0 -8 -4 -12
-9 -9 -5 3 -6 10 -3 15 9 13 12 11 12 -6z m-3242 -24 c3 -5 2 -12 -3 -15 -5
-3 -9 1 -9 9 0 17 3 19 12 6z m1560 -51 c3 -5 1 -10 -4 -10 -6 0 -11 5 -11 10
0 6 2 10 4 10 3 0 8 -4 11 -10z m85 4 c0 -8 -19 -13 -24 -6 -3 5 1 9 9 9 8 0
15 -2 15 -3z m-3525 -84 c3 -5 1 -10 -4 -10 -6 0 -11 5 -11 10 0 6 2 10 4 10
3 0 8 -4 11 -10z m5289 2 c3 -5 -1 -9 -9 -9 -8 0 -12 4 -9 9 3 4 7 8 9 8 2 0
6 -4 9 -8z m76 -2 c0 -5 -2 -10 -4 -10 -3 0 -8 5 -11 10 -3 6 -1 10 4 10 6 0
11 -4 11 -10z m315 0 c3 -5 1 -10 -4 -10 -6 0 -11 5 -11 10 0 6 2 10 4 10 3 0
8 -4 11 -10z m-5400 -39 c3 -5 2 -12 -3 -15 -5 -3 -9 1 -9 9 0 17 3 19 12 6z
m-675 -81 c0 -5 -2 -10 -4 -10 -3 0 -8 5 -11 10 -3 6 -1 10 4 10 6 0 11 -4 11
-10z m195 -69 c3 -5 2 -12 -3 -15 -5 -3 -9 1 -9 9 0 17 3 19 12 6z m5805 -131
c0 -5 -5 -10 -11 -10 -5 0 -7 5 -4 10 3 6 8 10 11 10 2 0 4 -4 4 -10z m-5760
-80 c0 -5 -5 -10 -11 -10 -5 0 -7 5 -4 10 3 6 8 10 11 10 2 0 4 -4 4 -10z
m6204 -118 c3 -5 -1 -9 -9 -9 -8 0 -12 4 -9 9 3 4 7 8 9 8 2 0 6 -4 9 -8z m31
-202 c3 -5 1 -10 -4 -10 -6 0 -11 5 -11 10 0 6 2 10 4 10 3 0 8 -4 11 -10z m0
-69 c3 -5 2 -12 -3 -15 -5 -3 -9 1 -9 9 0 17 3 19 12 6z m-6235 -85 c0 -3 -4
-8 -10 -11 -5 -3 -10 -1 -10 4 0 6 5 11 10 11 6 0 10 -2 10 -4z m5930 -2 c0
-8 -19 -13 -24 -6 -3 5 1 9 9 9 8 0 15 -2 15 -3z m70 -4 c0 -5 -5 -10 -11 -10
-5 0 -7 5 -4 10 3 6 8 10 11 10 2 0 4 -4 4 -10z m330 -76 c0 -8 -19 -13 -24
-6 -3 5 1 9 9 9 8 0 15 -2 15 -3z m-6173 -239 c0 -8 -4 -12 -9 -9 -5 3 -6 10
-3 15 9 13 12 11 12 -6z m-77 1 c0 -3 -4 -8 -10 -11 -5 -3 -10 -1 -10 4 0 6 5
11 10 11 6 0 10 -2 10 -4z m-85 -166 c3 -5 1 -10 -4 -10 -6 0 -11 5 -11 10 0
6 2 10 4 10 3 0 8 -4 11 -10z m165 0 c0 -5 -2 -10 -4 -10 -3 0 -8 5 -11 10 -3
6 -1 10 4 10 6 0 11 -4 11 -10z m80 4 c0 -8 -19 -13 -24 -6 -3 5 1 9 9 9 8 0
15 -2 15 -3z m-236 -82 c3 -5 -1 -9 -9 -9 -8 0 -12 4 -9 9 3 4 7 8 9 8 2 0 6
-4 9 -8z m-324 -162 c0 -5 -5 -10 -11 -10 -5 0 -7 5 -4 10 3 6 8 10 11 10 2 0
4 -4 4 -10z m244 -158 c3 -5 -1 -9 -9 -9 -8 0 -12 4 -9 9 3 4 7 8 9 8 2 0 6
-4 9 -8z m76 -2 c0 -5 -2 -10 -4 -10 -3 0 -8 5 -11 10 -3 6 -1 10 4 10 6 0 11
-4 11 -10z m-160 -160 c0 -5 -2 -10 -4 -10 -3 0 -8 5 -11 10 -3 6 -1 10 4 10
6 0 11 -4 11 -10z m480 0 c0 -5 -5 -10 -11 -10 -5 0 -7 5 -4 10 3 6 8 10 11
10 2 0 4 -4 4 -10z m-560 -480 c0 -5 -5 -10 -11 -10 -5 0 -7 5 -4 10 3 6 8 10
11 10 2 0 4 -4 4 -10z m400 -80 c0 -5 -5 -10 -11 -10 -5 0 -7 5 -4 10 3 6 8
10 11 10 2 0 4 -4 4 -10z m-396 -78 c3 -5 -1 -9 -9 -9 -8 0 -12 4 -9 9 3 4 7
8 9 8 2 0 6 -4 9 -8z m76 -2 c0 -5 -2 -10 -4 -10 -3 0 -8 5 -11 10 -3 6 -1 10
4 10 6 0 11 -4 11 -10z m-160 -314 c0 -3 -4 -8 -10 -11 -5 -3 -10 -1 -10 4 0
6 5 11 10 11 6 0 10 -2 10 -4z m80 -6 c0 -5 -2 -10 -4 -10 -3 0 -8 5 -11 10
-3 6 -1 10 4 10 6 0 11 -4 11 -10z m400 -240 c0 -5 -2 -10 -4 -10 -3 0 -8 5
-11 10 -3 6 -1 10 4 10 6 0 11 -4 11 -10z m155 -80 c3 -5 1 -10 -4 -10 -6 0
-11 5 -11 10 0 6 2 10 4 10 3 0 8 -4 11 -10z m-555 -74 c0 -3 -4 -8 -10 -11
-5 -3 -10 -1 -10 4 0 6 5 11 10 11 6 0 10 -2 10 -4z m-80 -482 c0 -8 -19 -13
-24 -6 -3 5 1 9 9 9 8 0 15 -2 15 -3z m320 -4 c0 -5 -5 -10 -11 -10 -5 0 -7 5
-4 10 3 6 8 10 11 10 2 0 4 -4 4 -10z m-150 -76 c0 -8 -19 -13 -24 -6 -3 5 1
9 9 9 8 0 15 -2 15 -3z m310 2 c0 -3 -4 -8 -10 -11 -5 -3 -10 -1 -10 4 0 6 5
11 10 11 6 0 10 -2 10 -4z m74 -4 c3 -5 -1 -9 -9 -9 -8 0 -12 4 -9 9 3 4 7 8
9 8 2 0 6 -4 9 -8z m-394 -76 c0 -3 -4 -8 -10 -11 -5 -3 -10 -1 -10 4 0 6 5
11 10 11 6 0 10 -2 10 -4z m5997 -11 c0 -8 -4 -12 -9 -9 -5 3 -6 10 -3 15 9
13 12 11 12 -6z m-2 -75 c3 -5 1 -10 -4 -10 -6 0 -11 5 -11 10 0 6 2 10 4 10
3 0 8 -4 11 -10z m-6035 -194 c0 -3 -4 -8 -10 -11 -5 -3 -10 -1 -10 4 0 6 5
11 10 11 6 0 10 -2 10 -4z m5715 -195 c3 -5 2 -12 -3 -15 -5 -3 -9 1 -9 9 0
17 3 19 12 6z m-5195 -11 c0 -5 -5 -10 -11 -10 -5 0 -7 5 -4 10 3 6 8 10 11
10 2 0 4 -4 4 -10z m5280 0 c0 -5 -2 -10 -4 -10 -3 0 -8 5 -11 10 -3 6 -1 10
4 10 6 0 11 -4 11 -10z m640 0 c0 -5 -5 -10 -11 -10 -5 0 -7 5 -4 10 3 6 8 10
11 10 2 0 4 -4 4 -10z m-5920 -76 c0 -8 -19 -13 -24 -6 -3 5 1 9 9 9 8 0 15
-2 15 -3z m240 2 c0 -3 -4 -8 -10 -11 -5 -3 -10 -1 -10 4 0 6 5 11 10 11 6 0
10 -2 10 -4z m960 -6 c0 -5 -5 -10 -11 -10 -5 0 -7 5 -4 10 3 6 8 10 11 10 2
0 4 -4 4 -10z m960 6 c0 -3 -4 -8 -10 -11 -5 -3 -10 -1 -10 4 0 6 5 11 10 11
6 0 10 -2 10 -4z m2560 -6 c0 -5 -5 -10 -11 -10 -5 0 -7 5 -4 10 3 6 8 10 11
10 2 0 4 -4 4 -10z m-1083 -35 c0 -8 -4 -12 -9 -9 -5 3 -6 10 -3 15 9 13 12
11 12 -6z m-3642 -45 c3 -5 1 -10 -4 -10 -6 0 -11 5 -11 10 0 6 2 10 4 10 3 0
8 -4 11 -10z m1199 2 c3 -5 -1 -9 -9 -9 -8 0 -12 4 -9 9 3 4 7 8 9 8 2 0 6 -4
9 -8z m721 -2 c3 -5 1 -10 -4 -10 -6 0 -11 5 -11 10 0 6 2 10 4 10 3 0 8 -4
11 -10z m885 0 c0 -5 -5 -10 -11 -10 -5 0 -7 5 -4 10 3 6 8 10 11 10 2 0 4 -4
4 -10z m480 0 c0 -5 -5 -10 -11 -10 -5 0 -7 5 -4 10 3 6 8 10 11 10 2 0 4 -4
4 -10z m1434 2 c3 -5 -1 -9 -9 -9 -8 0 -12 4 -9 9 3 4 7 8 9 8 2 0 6 -4 9 -8z
m966 -2 c0 -5 -5 -10 -11 -10 -5 0 -7 5 -4 10 3 6 8 10 11 10 2 0 4 -4 4 -10z
m-4965 -69 c3 -5 2 -12 -3 -15 -5 -3 -9 1 -9 9 0 17 3 19 12 6z m2082 -6 c0
-8 -4 -12 -9 -9 -5 3 -6 10 -3 15 9 13 12 11 12 -6z m2880 0 c0 -8 -4 -12 -9
-9 -5 3 -6 10 -3 15 9 13 12 11 12 -6z m-4882 -5 c3 -5 1 -10 -4 -10 -6 0 -11
5 -11 10 0 6 2 10 4 10 3 0 8 -4 11 -10z m2805 0 c0 -5 -5 -10 -11 -10 -5 0
-7 5 -4 10 3 6 8 10 11 10 2 0 4 -4 4 -10z m-6 -78 c3 -5 -1 -9 -9 -9 -8 0
-12 4 -9 9 3 4 7 8 9 8 2 0 6 -4 9 -8z m1521 -2 c3 -5 1 -10 -4 -10 -6 0 -11
5 -11 10 0 6 2 10 4 10 3 0 8 -4 11 -10z m560 1 c3 -5 2 -12 -3 -15 -5 -3 -9
1 -9 9 0 17 3 19 12 6z m-4235 -75 c0 -3 -4 -8 -10 -11 -5 -3 -10 -1 -10 4 0
6 5 11 10 11 6 0 10 -2 10 -4z m635 -6 c3 -5 1 -10 -4 -10 -6 0 -11 5 -11 10
0 6 2 10 4 10 3 0 8 -4 11 -10z m-1955 -36 c0 -8 -19 -13 -24 -6 -3 5 1 9 9 9
8 0 15 -2 15 -3z m2714 -2 c3 -5 -1 -9 -9 -9 -8 0 -12 4 -9 9 3 4 7 8 9 8 2 0
6 -4 9 -8z m206 -42 c0 -5 -5 -10 -11 -10 -5 0 -7 5 -4 10 3 6 8 10 11 10 2 0
4 -4 4 -10z m1200 6 c0 -3 -4 -8 -10 -11 -5 -3 -10 -1 -10 4 0 6 5 11 10 11 6
0 10 -2 10 -4z m80 -6 c0 -5 -2 -10 -4 -10 -3 0 -8 5 -11 10 -3 6 -1 10 4 10
6 0 11 -4 11 -10z m-3760 -80 c0 -5 -2 -10 -4 -10 -3 0 -8 5 -11 10 -3 6 -1
10 4 10 6 0 11 -4 11 -10z m315 1 c3 -5 2 -12 -3 -15 -5 -3 -9 1 -9 9 0 17 3
19 12 6z m85 -1 c0 -5 -5 -10 -11 -10 -5 0 -7 5 -4 10 3 6 8 10 11 10 2 0 4
-4 4 -10z m1524 2 c3 -5 -1 -9 -9 -9 -8 0 -12 4 -9 9 3 4 7 8 9 8 2 0 6 -4 9
-8z m76 -2 c0 -5 -2 -10 -4 -10 -3 0 -8 5 -11 10 -3 6 -1 10 4 10 6 0 11 -4
11 -10z m1515 -69 c3 -5 2 -12 -3 -15 -5 -3 -9 1 -9 9 0 17 3 19 12 6z m85
-11 c0 -5 -2 -10 -4 -10 -3 0 -8 5 -11 10 -3 6 -1 10 4 10 6 0 11 -4 11 -10z
m880 0 c0 -5 -5 -10 -11 -10 -5 0 -7 5 -4 10 3 6 8 10 11 10 2 0 4 -4 4 -10z
m160 0 c0 -5 -2 -10 -4 -10 -3 0 -8 5 -11 10 -3 6 -1 10 4 10 6 0 11 -4 11
-10z m77 -5 c0 -8 -4 -12 -9 -9 -5 3 -6 10 -3 15 9 13 12 11 12 -6z m-802 -64
c3 -5 2 -12 -3 -15 -5 -3 -9 1 -9 9 0 17 3 19 12 6z m-3665 -7 c0 -8 -19 -13
-24 -6 -3 5 1 9 9 9 8 0 15 -2 15 -3z m1190 -4 c0 -5 -5 -10 -11 -10 -5 0 -7
5 -4 10 3 6 8 10 11 10 2 0 4 -4 4 -10z m235 0 c3 -5 1 -10 -4 -10 -6 0 -11 5
-11 10 0 6 2 10 4 10 3 0 8 -4 11 -10z m1360 0 c3 -5 1 -10 -4 -10 -6 0 -11 5
-11 10 0 6 2 10 4 10 3 0 8 -4 11 -10z m165 0 c0 -5 -5 -10 -11 -10 -5 0 -7 5
-4 10 3 6 8 10 11 10 2 0 4 -4 4 -10z m795 0 c3 -5 1 -10 -4 -10 -6 0 -11 5
-11 10 0 6 2 10 4 10 3 0 8 -4 11 -10z"/>
</g>
</svg>
