<svg version="1.0" xmlns="http://www.w3.org/2000/svg" width="1792" height="1792" viewBox="0 0 1344 1344"><path d="M401.6 373.7c-.2.3-78.6.8-252.6 1.9-48.1.3-101.1.6-117.8.7l-30.3.2.6 48.5c.3 26.7.8 62.4 1 79.5.2 17 .7 52.4 1 78.5.3 26.1.8 61.9 1 79.5.2 17.6.7 53.6 1 80 .3 26.4.8 62.8 1 81 .3 18.1.7 54.1 1 80 .4 25.8.7 48.3.8 50 .1 1.6-.1 4.2-.5 5.7-.3 1.6-.3 2.8.1 2.8.5 0 .7 1.1.6 2.5-.2 1.4.2 2.5.8 2.5 3.7.2 75.4-.7 78.5-.9 1.3-.1 1.3-11.4-.4-146.1-.4-28.9-.7-58.1-.8-65l-.1-12.5 55.5.1c30.5.1 98.3.4 150.5.8 157.9 1 197.7 1 203.5.2 36.9-5.2 71.8-25.2 95.6-54.8 3-3.7 5.4-7 5.4-7.4 0-.4.6-1.5 1.4-2.3 5-5.8 12.5-24.6 14.6-37.1.8-4.5 1.2-29.5 1.2-80-.1-64.9-.3-78.9-1.8-85-4.9-21-14.6-38.4-31.1-55.6-6.8-7.1-22.5-20.4-24.2-20.4-.6 0-1.1-.5-1.1-1 0-.6-.4-1-1-1-.5 0-4-1.9-7.7-4.3-7.8-5-25-12.8-33.8-15.3-3.3-.9-6.1-1.6-6.2-1.6-.2.1-2.4-.5-5-1.3-2.7-.7-7.7-1.7-11.3-2.1-5.6-.7-88.8-1.3-89.4-.7zm85.4 82.2c5.3 1.5 14.3 5.2 15 6.2.3.3 1.5.9 2.7 1.3 1.3.4 2.9 1.3 3.5 1.9.7.7 3.2 2.5 5.6 4.1 5.6 3.8 14.7 13.7 17.3 18.8 2 4 2.1 5.4 2.1 73.4l.1 69.4-2.8 4.3c-8.1 12.3-25.6 24.1-40.5 27.2-5.9 1.2-2.6 1.2-183 0-57.5-.4-127-.8-154.5-1-27.5-.2-53.9-.4-58.6-.4l-8.6-.1-.2-23.8c-.2-13-.5-36.5-.6-52.2-.2-15.7-.6-50.9-1-78.3l-.6-49.7 5.8-.1c5.9 0 69-.4 237.3-1.5 52-.3 94.6-.6 94.7-.7.1-.1 14-.2 31-.1 21.8 0 32.1.4 35.3 1.3zM973.5 374c-.2.3-32.2.5-71.2.5-46 0-71.1.3-71.5 1-.5.7-.8.7-.8 0 0-1.6-47.6-.9-48.6.7-.3.5-1.2.4-1.9-.2-.9-.7-1.5-.7-1.9-.1-.4.5-1.5.8-2.6.6-1.1-.2-2-.1-2 .3s-1.9.8-4.1.9c-2.3.2-4.7.7-5.4 1.3-.6.5-1.4.7-1.7.4-.7-.6-14.3 3.8-21.3 7-2.7 1.3-6 2.6-7.2 3-1.3.4-2.3 1.2-2.3 1.7s-.7.9-1.5.9-1.5.5-1.5 1.1c0 .5-.4.8-.9.4-.5-.3-1.5 0-2.3.7-.7.7-4 3-7.2 5.2-5.8 3.7-25.1 22.4-24.2 23.3.2.2-1.1 2-3 4s-3.3 3.8-3 4c.3.3-.3 1.3-1.2 2.4-2.1 2.2-10.6 17.9-9.7 17.9.3 0-.1 1-.9 2.2-1.7 2.8-7.2 19-7.9 23.5-.3 1.7-.7 3.5-1 4-.5.8-1.7 8.2-2.3 13.8-.1 1.6-.5 4.1-.9 5.5-.3 1.4-.8 16.2-1 32.9-.3 16.7-.7 30.6-.9 30.9-.3.2-.1 1.2.4 2.2.5 1 .7 2 .4 2.3-.4.3-.8 12.2-.9 26.4-.2 14.2-.4 32.6-.6 40.9-.1 8.3.1 15.6.5 16.3.4.6.4 1.1-.1 1.1-1.2 0-1.1 33.4.1 34.2.8.5.8.8.1.8-1.7 0-.7 100.3 1 102.9.5 1 .4 1.2-.4.7s-1 .1-.6 2.3c.3 1.7.7 10.1 1 18.8.3 8.7.7 18 1 20.8.7 8.1 2.2 20 2.5 20 .1 0 .3 1.6.6 3.5.3 3.1 1 6.1 2 9.5.2.5.6 2.5.9 4.4.4 1.9 1.2 4.6 1.8 6 .6 1.4 1.1 3 1.2 3.6.4 2.9 2.9 9.5 3.7 9.5.4 0 .7.3.6.7-.5 1.5 3.4 10.3 4.4 10.3.6 0 .8.3.5.7-1.1 1 9.1 17.9 13.8 22.9 1.1 1.2 3.1 3.5 4.5 5.2 1.4 1.7 3.1 3.1 3.8 3.2.7 0 1.1.3.9.8-.2.4.4 1.5 1.5 2.5 1 .9 1.8 1.5 1.8 1.3 0-.2 1.6 1.1 3.5 3 2.1 2 4.1 3.2 4.8 2.8.7-.4.9-.4.5.1-1.5 1.6 22.4 15.5 26.4 15.5.8 0 1.8.4 2.4.9.7.6 7.3 2.8 11.4 3.7.3 0 1.2.3 2 .7 2 .8 11.4 2.6 16.5 3.1 2.2.3 5.1.7 6.5 1.1 5.1 1.2 73.9 1.8 258.5 2.2 132 .2 192 0 196.5-.7 6.6-1.1 17.3-4.1 20.7-5.8 6.5-3.3 13.9-6.5 14.6-6.4.4.1.7-.3.7-.8 0-.6.7-1 1.5-1s1.5-.5 1.5-1.1c0-.5.4-.8.9-.4.5.3 1.2.1 1.6-.5.3-.6 2.2-1.7 4.1-2.5 1.9-.8 3.4-1.8 3.4-2.3 0-.6 1.1-1.3 2.5-1.6 1.4-.4 2.3-1 2-1.5-.2-.5.6-1.2 2-1.5 1.4-.4 2.5-1.3 2.5-2.1s.4-1.4.9-1.2c1.6.4 16.2-13.2 22.2-20.8 10.3-13.1 15.9-25.9 17.4-40.5.2-1.9.5-3.5.5-3.5.1 0 .4-2.9.6-6.5.2-3.6.6-9.7.8-13.5.6-9.4 1.6-34.1 2-49.8l.4-12.7h-2.7c-11.4-.2-50.5-1.1-62.8-1.4l-15.3-.4-.1 6.7c-.1 10.5-.7 26.5-1.4 41.6-.4 7.7-.8 16.1-.8 18.7-.1 2.7-.4 4.8-.8 4.8-.3 0-.4 1-.2 2.3.4 2.1-3.6 8.5-6 9.5-.4.2-1.3.9-2 1.6-.6.6-2.5 1.9-4 2.9s-2.5 2.3-2.1 2.9c.4.7.3.8-.5.4-.6-.4-2.4 0-3.9 1s-2.9 1.9-3.2 2c-.3 0-2.3.9-4.5 1.9-3.5 1.6-7.1 1.8-30.7 1.7-14.7 0-27.2-.3-27.8-.7-.5-.3-1-.2-1 .2 0 .5-1.7.7-3.7.5-4.5-.3-1.5-.3-26-.2-11.1.1-20.7-.1-21.3-.5-.5-.3-1-.3-1 .2 0 1-165.2.9-166.8-.1-.7-.4-1.2-.4-1.2.1 0 .4-7.1.7-15.7.6-8.7-.1-41.2-.5-72.3-.8-67.9-.7-74-.8-74-1.5 0-.5-2.3-.9-8-1.3-1.4-.1-2.8-.6-3.1-1-.4-.5-1.8-1-3.3-1-1.4-.1-2.6-.5-2.6-.8 0-.3-1.2-1.1-2.7-1.8-1.6-.7-2.8-1.1-2.8-1 0 .2-1.8-1.5-4.1-3.8-4.8-4.8-7.4-8.6-7.4-10.8 0-.8-.4-1.5-.9-1.5-.8 0-4.6-9.6-4.3-11 0-.3-.4-1.1-1-1.8-.6-.6-.8-1.2-.5-1.2.3 0 .1-1.7-.4-3.8-1.9-8.1-2.8-14.7-3.4-26.2-.6-10.1-1.5-30.9-1.5-33-.1-.8-.1-6-.2-11.5-.4-19 .1-180.1.6-216 .7-49.4 1.3-57.9 4.1-66.5.1-.3.7-2.6 1.5-5.3.7-2.6 1.6-5 2.1-5.3.5-.3.9-1.4.9-2.5 0-1 .4-1.9.8-1.9.5 0 1.5-1.2 2.3-2.8 3-5.8 15.8-16.2 19.9-16.2 1 0 2.1-.4 2.4-.9.4-.5 2.5-1.2 4.7-1.6 2.9-.5 3.8-1 2.8-1.6-.9-.6-1-.9-.2-.9.6 0 1.4.4 1.7.9.3.5 2.1.6 3.8.2 1.8-.4 23.6-.8 48.3-.8 24.8-.1 46.6-.2 48.5-.3 1.9-.1 12.5-.1 23.5-.1s48.6-.2 83.5-.5c34.9-.2 65.6-.4 68.3-.4h6c101.9-.1 149.7 0 151.7.4 4.5.9 5.5 1.2 8.6 2.9 3.9 2 15.1 13.4 15.3 15.5.3 2.1 1.4 4.2 2.2 4.2.5 0 .9.5.9 1.1 0 .5 1.1 3.5 2.5 6.5s2.5 6.1 2.5 6.9c0 .8.5 1.5 1 1.5.6 0 1 .8 1 1.8s.9 4.5 1.9 7.8c1.1 3.2 2.2 7.6 2.5 9.8.4 2.1.9 4.3 1.3 4.9.3.5.7 2.2.8 3.6.4 5.7.5 6.2 1.3 5.8.4-.3.8 2 .8 5.1.1 3.2.5 8.4.9 11.7.3 3.3.6 7.1.6 8.5l-.1 2.6 13.7-.3c7.6-.2 23.9-.5 36.3-.7 12.4-.2 24.4-.5 26.7-.5l4.2-.1-.2-6.5c-.1-3.6-.4-6.5-.7-6.5-.3 0-.6-2.1-.6-4.8-.1-2.6-.5-6.7-.8-9.2-.3-2.5-.7-5.7-.8-7.3-.1-1.5-.6-2.7-1-2.7s-.5-.8-.3-1.8c.2-1.1-.6-6.1-1.6-11.3-1.1-5.2-2.2-10.3-2.4-11.4-.2-1.1-.4-2-.5-2-.1 0-.3-.7-.5-1.5-.9-4.9-6.9-22.6-7.6-22.8-.5-.2-.7-.7-.4-1.2.9-1.4-10.4-26.4-14-31-.6-.8-2.4-3.6-3.8-6.2-1.5-2.6-3.3-5.3-4-6-.6-.7-2.4-2.9-3.9-4.9-2.3-3.1-13.6-14.7-17.8-18.2-1.6-1.4-10.1-7.3-13.5-9.5-2.9-1.8-14.7-7.3-16.5-7.6-.3-.1-.9-.4-1.5-.7-.5-.4-3.5-1.2-6.5-2-3-.7-5.7-1.6-6-1.9-.3-.3-1.4-.6-2.5-.7-1.1 0-4.2-.5-7-.9-7.1-1.1-196.4-1.4-197.1-.3-.3.5-1.1.6-1.7.2-1.8-1.2-22.7-1-22.7.2 0 .7-.3.7-.8 0-.8-1.2-5.2-1.3-6.9-.2-.7.5-1.3.5-1.3 0 0-.8-25-1.2-25.5-.3zm215.5 6c0 .5-.2 1-.4 1-.3 0-.8-.5-1.1-1-.3-.6-.1-1 .4-1 .6 0 1.1.4 1.1 1zm24-.6c0 .3-.4.8-1 1.1-.5.3-1 .1-1-.4 0-.6.5-1.1 1-1.1.6 0 1 .2 1 .4zM812.5 388c.3.5.1 1-.4 1-.6 0-1.1-.5-1.1-1 0-.6.2-1 .4-1 .3 0 .8.4 1.1 1zm144.5 0c0 .5-.2 1-.4 1-.3 0-.8-.5-1.1-1-.3-.6-.1-1 .4-1 .6 0 1.1.4 1.1 1zm72 0c0 .5-.2 1-.4 1-.3 0-.8-.5-1.1-1-.3-.6-.1-1 .4-1 .6 0 1.1.4 1.1 1zm88-.6c0 .3-.4.8-1 1.1-.5.3-1 .1-1-.4 0-.6.5-1.1 1-1.1.6 0 1 .2 1 .4zm16 0c0 .3-.4.8-1 1.1-.5.3-1 .1-1-.4 0-.6.5-1.1 1-1.1.6 0 1 .2 1 .4zm7.4.4c.3.5-.1.9-.9.9s-1.2-.4-.9-.9c.3-.4.7-.8.9-.8.2 0 .6.4.9.8zm56.1.2c.3.5.1 1-.4 1-.6 0-1.1-.5-1.1-1 0-.6.2-1 .4-1 .3 0 .8.4 1.1 1zm-431.8 7.5c0 .8-.4 1.2-.9.9-.5-.3-.6-1-.3-1.5.9-1.3 1.2-1.1 1.2.6zm-7.7-.1c0 .3-.4.8-1 1.1-.5.3-1 .1-1-.4 0-.6.5-1.1 1-1.1.6 0 1 .2 1 .4zm56.4.4c.3.5-.1.9-.9.9s-1.2-.4-.9-.9c.3-.4.7-.8.9-.8.2 0 .6.4.9.8zm47.3 7.7c0 .8-.4 1.2-.9.9-.5-.3-.6-1-.3-1.5.9-1.3 1.2-1.1 1.2.6zm384 0c0 .8-.4 1.2-.9.9-.5-.3-.6-1-.3-1.5.9-1.3 1.2-1.1 1.2.6zM853 404c0 .5-.5 1-1.1 1-.5 0-.7-.5-.4-1 .3-.6.8-1 1.1-1 .2 0 .4.4.4 1zm64-.6c0 .3-.4.8-1 1.1-.5.3-1 .1-1-.4 0-.6.5-1.1 1-1.1.6 0 1 .2 1 .4zm7.4.4c.3.5-.1.9-.9.9s-1.2-.4-.9-.9c.3-.4.7-.8.9-.8.2 0 .6.4.9.8zm312.6.2c0 .5-.5 1-1.1 1-.5 0-.7-.5-.4-1 .3-.6.8-1 1.1-1 .2 0 .4.4.4 1zm-216 7.4c0 .3-.4.8-1 1.1-.5.3-1 .1-1-.4 0-.6.5-1.1 1-1.1.6 0 1 .2 1 .4zm-304 8c0 .3-.4.8-1 1.1-.5.3-1 .1-1-.4 0-.6.5-1.1 1-1.1.6 0 1 .2 1 .4zm72 .6c0 .5-.2 1-.4 1-.3 0-.8-.5-1.1-1-.3-.6-.1-1 .4-1 .6 0 1.1.4 1.1 1zm191.5-.1c.3.5.2 1.2-.3 1.5-.5.3-.9-.1-.9-.9 0-1.7.3-1.9 1.2-.6zm8.5.1c0 .5-.5 1-1.1 1-.5 0-.7-.5-.4-1 .3-.6.8-1 1.1-1 .2 0 .4.4.4 1zm136-.6c0 .3-.4.8-1 1.1-.5.3-1 .1-1-.4 0-.6.5-1.1 1-1.1.6 0 1 .2 1 .4zm48 0c0 .3-.4.8-1 1.1-.5.3-1 .1-1-.4 0-.6.5-1.1 1-1.1.6 0 1 .2 1 .4zm88 .6c0 .5-.2 1-.4 1-.3 0-.8-.5-1.1-1-.3-.6-.1-1 .4-1 .6 0 1.1.4 1.1 1zm-544.5 8c.3.5.1 1-.4 1-.6 0-1.1-.5-1.1-1 0-.6.2-1 .4-1 .3 0 .8.4 1.1 1zm40.5 0c0 .5-.2 1-.4 1-.3 0-.8-.5-1.1-1-.3-.6-.1-1 .4-1 .6 0 1.1.4 1.1 1zm7.7.5c0 .8-.4 1.2-.9.9-.5-.3-.6-1-.3-1.5.9-1.3 1.2-1.1 1.2.6zm168 0c0 .8-.4 1.2-.9.9-.5-.3-.6-1-.3-1.5.9-1.3 1.2-1.1 1.2.6zm-96.2 7.4c.3.5.2 1.2-.3 1.5-.5.3-.9-.1-.9-.9 0-1.7.3-1.9 1.2-.6zm8.5.1c0 .5-.5 1-1.1 1-.5 0-.7-.5-.4-1 .3-.6.8-1 1.1-1 .2 0 .4.4.4 1zm32-.6c0 .3-.4.8-1 1.1-.5.3-1 .1-1-.4 0-.6.5-1.1 1-1.1.6 0 1 .2 1 .4zm55.5.6c.3.5.1 1-.4 1-.6 0-1.1-.5-1.1-1 0-.6.2-1 .4-1 .3 0 .8.4 1.1 1zm288 0c.3.5.1 1-.4 1-.6 0-1.1-.5-1.1-1 0-.6.2-1 .4-1 .3 0 .8.4 1.1 1zm8.2.5c0 .8-.4 1.2-.9.9-.5-.3-.6-1-.3-1.5.9-1.3 1.2-1.1 1.2.6zm-324.2 2.4c.3.5.2 1.2-.3 1.5-.5.3-.9-.1-.9-.9 0-1.7.3-1.9 1.2-.6zm156 5.1c.3.5.1 1-.4 1-.6 0-1.1-.5-1.1-1 0-.6.2-1 .4-1 .3 0 .8.4 1.1 1zm8.5-.4c0 .8-1.9 1.3-2.4.6-.3-.5.1-.9.9-.9s1.5.2 1.5.3zM716.5 452c.3.5.1 1-.4 1-.6 0-1.1-.5-1.1-1 0-.6.2-1 .4-1 .3 0 .8.4 1.1 1zm528.9-.2c.3.5-.1.9-.9.9s-1.2-.4-.9-.9c.3-.4.7-.8.9-.8.2 0 .6.4.9.8zm7.6.2c0 .5-.2 1-.4 1-.3 0-.8-.5-1.1-1-.3-.6-.1-1 .4-1 .6 0 1.1.4 1.1 1zm31.5 0c.3.5.1 1-.4 1-.6 0-1.1-.5-1.1-1 0-.6.2-1 .4-1 .3 0 .8.4 1.1 1zm-540 3.9c.3.5.2 1.2-.3 1.5-.5.3-.9-.1-.9-.9 0-1.7.3-1.9 1.2-.6zM677 464c0 .5-.2 1-.4 1-.3 0-.8-.5-1.1-1-.3-.6-.1-1 .4-1 .6 0 1.1.4 1.1 1zm19.5 6.9c.3.5.2 1.2-.3 1.5-.5.3-.9-.1-.9-.9 0-1.7.3-1.9 1.2-.6zM1277 484c0 .5-.5 1-1.1 1-.5 0-.7-.5-.4-1 .3-.6.8-1 1.1-1 .2 0 .4.4.4 1zm-576 8c0 .5-.5 1-1.1 1-.5 0-.7-.5-.4-1 .3-.6.8-1 1.1-1 .2 0 .4.4.4 1zm620.4 11.8c.3.5-.1.9-.9.9s-1.2-.4-.9-.9c.3-.4.7-.8.9-.8.2 0 .6.4.9.8zm3.1 20.2c.3.5.1 1-.4 1-.6 0-1.1-.5-1.1-1 0-.6.2-1 .4-1 .3 0 .8.4 1.1 1zm0 6.9c.3.5.2 1.2-.3 1.5-.5.3-.9-.1-.9-.9 0-1.7.3-1.9 1.2-.6zM701 539.4c0 .3-.4.8-1 1.1-.5.3-1 .1-1-.4 0-.6.5-1.1 1-1.1.6 0 1 .2 1 .4zm593 .2c0 .8-1.9 1.3-2.4.6-.3-.5.1-.9.9-.9s1.5.2 1.5.3zm7 .4c0 .5-.5 1-1.1 1-.5 0-.7-.5-.4-1 .3-.6.8-1 1.1-1 .2 0 .4.4.4 1zm33 7.6c0 .8-1.9 1.3-2.4.6-.3-.5.1-.9.9-.9s1.5.2 1.5.3zm-617.3 23.9c0 .8-.4 1.2-.9.9-.5-.3-.6-1-.3-1.5.9-1.3 1.2-1.1 1.2.6zm-7.7-.1c0 .3-.4.8-1 1.1-.5.3-1 .1-1-.4 0-.6.5-1.1 1-1.1.6 0 1 .2 1 .4zm-8.5 16.6c.3.5.1 1-.4 1-.6 0-1.1-.5-1.1-1 0-.6.2-1 .4-1 .3 0 .8.4 1.1 1zm16.5 0c0 .5-.2 1-.4 1-.3 0-.8-.5-1.1-1-.3-.6-.1-1 .4-1 .6 0 1.1.4 1.1 1zm8-.4c0 .8-1.9 1.3-2.4.6-.3-.5.1-.9.9-.9s1.5.2 1.5.3zm-23.6 8.2c.3.5-.1.9-.9.9s-1.2-.4-.9-.9c.3-.4.7-.8.9-.8.2 0 .6.4.9.8zM669 612c0 .5-.5 1-1.1 1-.5 0-.7-.5-.4-1 .3-.6.8-1 1.1-1 .2 0 .4.4.4 1zm24.4 15.8c.3.5-.1.9-.9.9s-1.2-.4-.9-.9c.3-.4.7-.8.9-.8.2 0 .6.4.9.8zm7.6.2c0 .5-.2 1-.4 1-.3 0-.8-.5-1.1-1-.3-.6-.1-1 .4-1 .6 0 1.1.4 1.1 1zm-16 16c0 .5-.2 1-.4 1-.3 0-.8-.5-1.1-1-.3-.6-.1-1 .4-1 .6 0 1.1.4 1.1 1zm48 0c0 .5-.5 1-1.1 1-.5 0-.7-.5-.4-1 .3-.6.8-1 1.1-1 .2 0 .4.4.4 1zm-56 48c0 .5-.5 1-1.1 1-.5 0-.7-.5-.4-1 .3-.6.8-1 1.1-1 .2 0 .4.4.4 1zm40 8c0 .5-.5 1-1.1 1-.5 0-.7-.5-.4-1 .3-.6.8-1 1.1-1 .2 0 .4.4.4 1zm-39.6 7.8c.3.5-.1.9-.9.9s-1.2-.4-.9-.9c.3-.4.7-.8.9-.8.2 0 .6.4.9.8zm7.6.2c0 .5-.2 1-.4 1-.3 0-.8-.5-1.1-1-.3-.6-.1-1 .4-1 .6 0 1.1.4 1.1 1zm-16 31.4c0 .3-.4.8-1 1.1-.5.3-1 .1-1-.4 0-.6.5-1.1 1-1.1.6 0 1 .2 1 .4zm8 .6c0 .5-.2 1-.4 1-.3 0-.8-.5-1.1-1-.3-.6-.1-1 .4-1 .6 0 1.1.4 1.1 1zm40 24c0 .5-.2 1-.4 1-.3 0-.8-.5-1.1-1-.3-.6-.1-1 .4-1 .6 0 1.1.4 1.1 1zm15.5 8c.3.5.1 1-.4 1-.6 0-1.1-.5-1.1-1 0-.6.2-1 .4-1 .3 0 .8.4 1.1 1zm-55.5 7.4c0 .3-.4.8-1 1.1-.5.3-1 .1-1-.4 0-.6.5-1.1 1-1.1.6 0 1 .2 1 .4zm-8 48.2c0 .8-1.9 1.3-2.4.6-.3-.5.1-.9.9-.9s1.5.2 1.5.3zm32 .4c0 .5-.5 1-1.1 1-.5 0-.7-.5-.4-1 .3-.6.8-1 1.1-1 .2 0 .4.4.4 1zm-15 7.6c0 .8-1.9 1.3-2.4.6-.3-.5.1-.9.9-.9s1.5.2 1.5.3zm31-.2c0 .3-.4.8-1 1.1-.5.3-1 .1-1-.4 0-.6.5-1.1 1-1.1.6 0 1 .2 1 .4zm7.4.4c.3.5-.1.9-.9.9s-1.2-.4-.9-.9c.3-.4.7-.8.9-.8.2 0 .6.4.9.8zm-39.4 7.6c0 .3-.4.8-1 1.1-.5.3-1 .1-1-.4 0-.6.5-1.1 1-1.1.6 0 1 .2 1 .4zm599.7 1.1c0 .8-.4 1.2-.9.9-.5-.3-.6-1-.3-1.5.9-1.3 1.2-1.1 1.2.6zm-.2 7.5c.3.5.1 1-.4 1-.6 0-1.1-.5-1.1-1 0-.6.2-1 .4-1 .3 0 .8.4 1.1 1zM681 871.4c0 .3-.4.8-1 1.1-.5.3-1 .1-1-.4 0-.6.5-1.1 1-1.1.6 0 1 .2 1 .4zm571.5 19.5c.3.5.2 1.2-.3 1.5-.5.3-.9-.1-.9-.9 0-1.7.3-1.9 1.2-.6zM733 892c0 .5-.5 1-1.1 1-.5 0-.7-.5-.4-1 .3-.6.8-1 1.1-1 .2 0 .4.4.4 1zm528 0c0 .5-.2 1-.4 1-.3 0-.8-.5-1.1-1-.3-.6-.1-1 .4-1 .6 0 1.1.4 1.1 1zm64 0c0 .5-.5 1-1.1 1-.5 0-.7-.5-.4-1 .3-.6.8-1 1.1-1 .2 0 .4.4.4 1zm-592 7.6c0 .8-1.9 1.3-2.4.6-.3-.5.1-.9.9-.9s1.5.2 1.5.3zm24-.2c0 .3-.4.8-1 1.1-.5.3-1 .1-1-.4 0-.6.5-1.1 1-1.1.6 0 1 .2 1 .4zm96 .6c0 .5-.5 1-1.1 1-.5 0-.7-.5-.4-1 .3-.6.8-1 1.1-1 .2 0 .4.4.4 1zm96-.6c0 .3-.4.8-1 1.1-.5.3-1 .1-1-.4 0-.6.5-1.1 1-1.1.6 0 1 .2 1 .4zm256 .6c0 .5-.5 1-1.1 1-.5 0-.7-.5-.4-1 .3-.6.8-1 1.1-1 .2 0 .4.4.4 1zm-108.3 3.5c0 .8-.4 1.2-.9.9-.5-.3-.6-1-.3-1.5.9-1.3 1.2-1.1 1.2.6zM732.5 908c.3.5.1 1-.4 1-.6 0-1.1-.5-1.1-1 0-.6.2-1 .4-1 .3 0 .8.4 1.1 1zm119.9-.2c.3.5-.1.9-.9.9s-1.2-.4-.9-.9c.3-.4.7-.8.9-.8.2 0 .6.4.9.8zm72.1.2c.3.5.1 1-.4 1-.6 0-1.1-.5-1.1-1 0-.6.2-1 .4-1 .3 0 .8.4 1.1 1zm88.5 0c0 .5-.5 1-1.1 1-.5 0-.7-.5-.4-1 .3-.6.8-1 1.1-1 .2 0 .4.4.4 1zm48 0c0 .5-.5 1-1.1 1-.5 0-.7-.5-.4-1 .3-.6.8-1 1.1-1 .2 0 .4.4.4 1zm143.4-.2c.3.5-.1.9-.9.9s-1.2-.4-.9-.9c.3-.4.7-.8.9-.8.2 0 .6.4.9.8zm96.6.2c0 .5-.5 1-1.1 1-.5 0-.7-.5-.4-1 .3-.6.8-1 1.1-1 .2 0 .4.4.4 1zm-496.5 6.9c.3.5.2 1.2-.3 1.5-.5.3-.9-.1-.9-.9 0-1.7.3-1.9 1.2-.6zm208.2.6c0 .8-.4 1.2-.9.9-.5-.3-.6-1-.3-1.5.9-1.3 1.2-1.1 1.2.6zm288 0c0 .8-.4 1.2-.9.9-.5-.3-.6-1-.3-1.5.9-1.3 1.2-1.1 1.2.6zm-488.2.5c.3.5.1 1-.4 1-.6 0-1.1-.5-1.1-1 0-.6.2-1 .4-1 .3 0 .8.4 1.1 1zm280.5 0c0 .5-.5 1-1.1 1-.5 0-.7-.5-.4-1 .3-.6.8-1 1.1-1 .2 0 .4.4.4 1zm-.6 7.8c.3.5-.1.9-.9.9s-1.2-.4-.9-.9c.3-.4.7-.8.9-.8.2 0 .6.4.9.8zm152.1.2c.3.5.1 1-.4 1-.6 0-1.1-.5-1.1-1 0-.6.2-1 .4-1 .3 0 .8.4 1.1 1zm56-.1c.3.5.2 1.2-.3 1.5-.5.3-.9-.1-.9-.9 0-1.7.3-1.9 1.2-.6zM877 931.4c0 .3-.4.8-1 1.1-.5.3-1 .1-1-.4 0-.6.5-1.1 1-1.1.6 0 1 .2 1 .4zm63.5.6c.3.5.1 1-.4 1-.6 0-1.1-.5-1.1-1 0-.6.2-1 .4-1 .3 0 .8.4 1.1 1zM745 935.6c0 .8-1.9 1.3-2.4.6-.3-.5.1-.9.9-.9s1.5.2 1.5.3zm271.4.2c.3.5-.1.9-.9.9s-1.2-.4-.9-.9c.3-.4.7-.8.9-.8.2 0 .6.4.9.8zm20.6 4.2c0 .5-.5 1-1.1 1-.5 0-.7-.5-.4-1 .3-.6.8-1 1.1-1 .2 0 .4.4.4 1zm120-.6c0 .3-.4.8-1 1.1-.5.3-1 .1-1-.4 0-.6.5-1.1 1-1.1.6 0 1 .2 1 .4zm8 .6c0 .5-.2 1-.4 1-.3 0-.8-.5-1.1-1-.3-.6-.1-1 .4-1 .6 0 1.1.4 1.1 1zm-376 8c0 .5-.2 1-.4 1-.3 0-.8-.5-1.1-1-.3-.6-.1-1 .4-1 .6 0 1.1.4 1.1 1zm31.5-.1c.3.5.2 1.2-.3 1.5-.5.3-.9-.1-.9-.9 0-1.7.3-1.9 1.2-.6zm8.5.1c0 .5-.5 1-1.1 1-.5 0-.7-.5-.4-1 .3-.6.8-1 1.1-1 .2 0 .4.4.4 1zm152.4-.2c.3.5-.1.9-.9.9s-1.2-.4-.9-.9c.3-.4.7-.8.9-.8.2 0 .6.4.9.8zm7.6.2c0 .5-.2 1-.4 1-.3 0-.8-.5-1.1-1-.3-.6-.1-1 .4-1 .6 0 1.1.4 1.1 1zm151.5 6.9c.3.5.2 1.2-.3 1.5-.5.3-.9-.1-.9-.9 0-1.7.3-1.9 1.2-.6zm8.5 1.1c0 .5-.2 1-.4 1-.3 0-.8-.5-1.1-1-.3-.6-.1-1 .4-1 .6 0 1.1.4 1.1 1zm88 0c0 .5-.5 1-1.1 1-.5 0-.7-.5-.4-1 .3-.6.8-1 1.1-1 .2 0 .4.4.4 1zm16 0c0 .5-.2 1-.4 1-.3 0-.8-.5-1.1-1-.3-.6-.1-1 .4-1 .6 0 1.1.4 1.1 1zm7.7.5c0 .8-.4 1.2-.9.9-.5-.3-.6-1-.3-1.5.9-1.3 1.2-1.1 1.2.6zm-80.2 6.4c.3.5.2 1.2-.3 1.5-.5.3-.9-.1-.9-.9 0-1.7.3-1.9 1.2-.6zm-366.5.7c0 .8-1.9 1.3-2.4.6-.3-.5.1-.9.9-.9s1.5.2 1.5.3zm119 .4c0 .5-.5 1-1.1 1-.5 0-.7-.5-.4-1 .3-.6.8-1 1.1-1 .2 0 .4.4.4 1zm23.5 0c.3.5.1 1-.4 1-.6 0-1.1-.5-1.1-1 0-.6.2-1 .4-1 .3 0 .8.4 1.1 1zm136 0c.3.5.1 1-.4 1-.6 0-1.1-.5-1.1-1 0-.6.2-1 .4-1 .3 0 .8.4 1.1 1zm16.5 0c0 .5-.5 1-1.1 1-.5 0-.7-.5-.4-1 .3-.6.8-1 1.1-1 .2 0 .4.4.4 1zm79.5 0c.3.5.1 1-.4 1-.6 0-1.1-.5-1.1-1 0-.6.2-1 .4-1 .3 0 .8.4 1.1 1z"/></svg>