<svg xmlns="http://www.w3.org/2000/svg" width="41.565" height="18.505"><path d="M1.478 18.371L1.266 1.353l13.444-.086c1.279-.008 2.995 1.211 3.021 2.49 0 0-.026 1.491 0 4.105.012 1.239-1.612 2.39-2.85 2.383L1.308 10.16" fill="none" stroke="#31549c" stroke-width="2.5" stroke-opacity=".937"/><path d="M40.315 5.597s-.086-4.323-2.765-4.34c-4.655-.03-7.006.045-12.807.043-2.221-.001-3.004 1.623-3.02 3.19-.039 3.563-.125 5.778 0 9.276.102 2.891 1.559 3.426 3.105 3.446 5.908.078 8.594.021 13.105.043.568.002 2.02-.843 2.127-1.66.087-.658.128-2.595.128-2.595" fill="none" stroke="#ed3236" stroke-width="2.5" stroke-opacity=".847"/></svg>